<?xml version="1.0" encoding="UTF-8"?>
<svg id="Calque_2" xmlns="http://www.w3.org/2000/svg" viewBox="0 0 457.47 47.26">
  <defs>
    <style>
      .cls-1 {
        fill: #fff;
      }
    </style>
  </defs>
  <g id="Calque_1-2" data-name="Calque_1">
    <g>
      <g>
        <polygon class="cls-1" points="21.96 26.91 21.96 14.93 28.28 14.93 28.28 22.57 39.66 22.57 39.66 14.93 39.66 14.93 39.66 .12 0 .12 0 47.2 21.96 47.2 21.96 35.57 39.71 35.57 39.71 26.91 21.96 26.91"/>
        <path class="cls-1" d="M44.57.12h22.54s0,31.05,0,31.05h10.41s0,16.03,0,16.03h-32.95s0-47.08,0-47.08Z"/>
        <g>
          <path class="cls-1" d="M81.8,21.01h21.96s0,26.19,0,26.19h-21.96s0-26.19,0-26.19Z"/>
          <rect class="cls-1" x="81.8" y=".12" width="21.96" height="14.81"/>
        </g>
        <polygon class="cls-1" points="166.99 47.26 142.26 47.26 134.01 35.38 126.77 47.26 105.18 47.26 121.4 22.94 105.86 .18 131.26 .18 139.1 11.62 146.15 .18 166.33 .18 151.3 23.29 155.17 29.18 163.09 41.29 166.99 47.26"/>
      </g>
      <g>
        <path class="cls-1" d="M181.13,47.14l-.05-46.84,46.84-.05v4.68s4.69,0,4.69,0l.02,14.05h-4.68s.01,9.37.01,9.37h4.68s.02,14.05.02,14.05h-4.68s0,4.69,0,4.69l-46.84.05ZM199.82,9.65v9.37s14.06-.02,14.06-.02v-9.37s-14.06.02-14.06.02ZM199.84,28.39v9.37s14.06-.02,14.06-.02v-9.37s-14.06.02-14.06.02Z"/>
        <path class="cls-1" d="M284.17,47.03l-42.15.05v-4.68s-4.69,0-4.69,0l-.04-37.47h4.68s0-4.69,0-4.69l42.15-.05v4.68s4.69,0,4.69,0l.04,37.47h-4.68s0,4.69,0,4.69ZM270.11,37.68l-.03-28.1h-14.05s.03,28.12.03,28.12h14.05Z"/>
        <path class="cls-1" d="M340.38,46.97l-42.15.05v-4.68s-4.69,0-4.69,0l-.04-37.47h4.68s0-4.69,0-4.69l42.15-.05v4.68s4.69,0,4.69,0l.04,37.47h-4.68s0,4.69,0,4.69ZM326.32,37.61l-.03-28.1-14.05.02.03,28.1,14.05-.02Z"/>
        <path class="cls-1" d="M349.7.12l18.74-.02.02,14.05h4.68s0-4.69,0-4.69h4.68s0-4.69,0-4.69h4.68s0-4.69,0-4.69l18.74-.02v9.37s-4.67,0-4.67,0v4.68s-4.68,0-4.68,0v4.68s-4.68,0-4.68,0v9.37s4.69,0,4.69,0v4.68s4.69,0,4.69,0v4.68s4.69,0,4.69,0v9.37s-18.72.02-18.72.02v-4.68s-4.69,0-4.69,0v-4.68s-4.69,0-4.69,0v-4.68s-4.69,0-4.69,0l.02,14.05-18.74.02-.05-46.84Z"/>
        <path class="cls-1" d="M410.62,28.15v-4.68s-4.69,0-4.69,0l-.02-18.74h4.68s0-4.69,0-4.69l46.84-.05v9.37s-32.78.04-32.78.04v9.37s28.11-.03,28.11-.03v4.68s4.69,0,4.69,0l.02,18.73h-4.68s0,4.69,0,4.69l-46.84.05v-9.37s32.78-.04,32.78-.04v-9.37s-28.11.03-28.11.03Z"/>
      </g>
      <path class="cls-1" d="M172.62,6.48c-3.75,5.64-7.51,11.29-11.26,16.93,3.75,5.85,7.51,11.7,11.26,17.54V6.48Z"/>
    </g>
  </g>
</svg>